PathFileType	4	(X/Y/Z)	C:\Users\Basilio\Documents\Thesis Gigler\squatting_fais\c3dfiles\077\SJ_pre4\markers_experimental.trc
DataRate	CameraRate	NumFrames	NumMarkers	Units	OrigDataRate	OrigDataStartFrame	OrigNumFrames
200.000000	200.000000	4	60	mm	200.000000	682	1365
Frame#	Time	FHD			LBHD			RBHD			C7			T10			CLAV			LSHO			LUUPA			LMUPA			LDUPA			LLEP			LMEP			LRAD			LUL			LRFIN			RSHO			RUPA1			RMUPA			RDUPA			RLEP			RMEP			RRAD			RUL			RUFIN			LASI			RASI			USACR			LSACR			RSACR			LTHI1			LTHI2			LTHI3			LTHI4			LLFC			LMFC			LTIB1			LTIB2			LTIB3			LTIB4			LLMAL			LHEE			LMT1			LMT2			LMT5			RTHI			RTHI2			RTHI3			RTHI4			RLFC			RMFC			RTIB1			RTIB2			RTIB3			RTIB4			RLMAL			RMMAL			RHEE			RMT1			RMT2			RMT5			
		X1	Y1	Z1	X2	Y2	Z2	X3	Y3	Z3	X4	Y4	Z4	X5	Y5	Z5	X6	Y6	Z6	X7	Y7	Z7	X8	Y8	Z8	X9	Y9	Z9	X10	Y10	Z10	X11	Y11	Z11	X12	Y12	Z12	X13	Y13	Z13	X14	Y14	Z14	X15	Y15	Z15	X16	Y16	Z16	X17	Y17	Z17	X18	Y18	Z18	X19	Y19	Z19	X20	Y20	Z20	X21	Y21	Z21	X22	Y22	Z22	X23	Y23	Z23	X24	Y24	Z24	X25	Y25	Z25	X26	Y26	Z26	X27	Y27	Z27	X28	Y28	Z28	X29	Y29	Z29	X30	Y30	Z30	X31	Y31	Z31	X32	Y32	Z32	X33	Y33	Z33	X34	Y34	Z34	X35	Y35	Z35	X36	Y36	Z36	X37	Y37	Z37	X38	Y38	Z38	X39	Y39	Z39	X40	Y40	Z40	X41	Y41	Z41	X42	Y42	Z42	X43	Y43	Z43	X44	Y44	Z44	X45	Y45	Z45	X46	Y46	Z46	X47	Y47	Z47	X48	Y48	Z48	X49	Y49	Z49	X50	Y50	Z50	X51	Y51	Z51	X52	Y52	Z52	X53	Y53	Z53	X54	Y54	Z54	X55	Y55	Z55	X56	Y56	Z56	X57	Y57	Z57	X58	Y58	Z58	X59	Y59	Z59	X60	Y60	Z60	

683	3.41	70.01217651367189	1220.906494140625	-902.8425292968752	-70.41503906250001	1110.564086914063	-968.7529907226565	-77.2965545654297	1112.6328125	-823.9128417968752	-129.9405670166016	1059.326049804688	-895.6213989257815	-370.4855346679688	863.0841064453127	-903.5294189453127	-19.40630722045899	904.7159423828127	-889.5489501953127	-4.752739906311036	969.1019287109377	-1061.113647460938	-81.74325561523439	900.9730224609377	-1255.355224609375	-90.84085083007814	853.0111083984377	-1257.3447265625	-114.1997833251953	873.738952636719	-1309.549194335938	-158.1177673339844	827.872985839844	-1346.708984375	-221.1760711669922	889.0371093750002	-1342.722290039063	-386.7475585937501	762.6401367187501	-1134.571044921875	-374.5277404785157	690.7326660156251	-1171.593017578125	nan	nan	nan	16.96333885192871	946.247497558594	-723.0703125000001	-90.1985549926758	860.805114746094	-528.0031738281251	-115.3218383789063	819.5144042968752	-543.0377807617189	-139.916259765625	830.506774902344	-489.0056457519532	-198.5018920898438	791.9355468750002	-467.7156372070314	-252.0995483398438	864.3789062500002	-462.9530029296876	-436.3761596679689	748.4995727539064	-655.4255371093751	-409.1498413085939	673.7070922851564	-641.5832519531251	nan	nan	nan	nan	nan	nan	nan	nan	nan	-471.2957153320314	804.4012451171877	-908.383239746094	-494.7651977539064	794.9036254882815	-938.6270141601565	-506.5074462890626	793.2955322265627	-884.8238525390627	-388.003387451172	592.9269409179689	-1155.058471679688	-307.9901733398438	585.9761962890626	-1180.032958984375	-280.6465454101563	623.0347900390626	-1162.36328125	-278.7442932128907	535.7172241210939	-1197.278930664063	-141.9550476074219	477.744110107422	-1224.151977539063	-103.3089675903321	433.811981201172	-1103.610717773438	-185.393295288086	264.3774414062501	-1173.712280273438	-254.7063140869141	256.5690917968751	-1233.862915039063	-224.2922058105469	234.1323547363282	-1208.202514648438	-266.6012573242188	166.9761199951172	-1176.562255859375	-384.447235107422	104.2363052368164	-1207.91650390625	-440.8684082031251	48.31788253784181	-1154.304321289063	-226.702865600586	55.72225189208986	-1190.518798828125	-235.5393524169922	59.8826141357422	-1232.373779296875	-337.0201721191407	93.71891021728517	-1133.011108398438	-312.2459716796876	538.7279663085939	-615.9796142578126	-243.4473724365235	552.5247802734376	-601.2529296875001	-226.3463897705079	579.6442871093751	-613.3845825195314	-190.2854766845703	489.793426513672	-590.9197998046876	-155.8290405273438	451.0700988769532	-580.9919433593751	-106.5004653930664	427.599090576172	-698.0941772460939	-164.1327514648438	317.7322082519532	-591.6567993164064	-267.9177246093751	286.0864257812501	-580.2998046875001	-229.7522735595704	259.5073547363282	-591.9736938476564	-237.5506286621094	216.4547882080079	-630.9677734375001	-394.4723205566407	98.723014831543	-618.3765869140626	-346.7870178222657	85.74788665771486	-696.2964477539064	-452.0114135742189	48.66076278686525	-681.8699951171876	-239.2486572265626	58.88151168823244	-599.1578979492189	-255.0894317626954	61.29039001464845	-564.6347045898439	-285.1885375976563	42.95861816406251	-522.7545776367189	
684	3.415	69.75057220458986	1222.378540039063	-902.983581542969	-70.4905471801758	1112.03076171875	-968.5029296875002	-77.41262054443361	1113.96240234375	-824.0067138671877	-130.7091369628907	1060.80810546875	-895.429870605469	-370.2898864746094	863.7960205078127	-903.4600219726565	-19.27680778503418	905.700622558594	-889.6624755859377	-4.87874460220337	970.104187011719	-1061.334838867188	-81.37219238281251	901.703308105469	-1255.140625	-91.30525207519533	854.2366943359377	-1257.441040039063	-114.0590972900391	874.4425048828127	-1309.571044921875	-158.3743743896485	828.6826171875002	-1346.895874023438	-221.3413391113282	889.642272949219	-1342.800415039063	-387.0987548828126	762.6935424804689	-1134.511840820313	-374.3782958984376	691.2938232421876	-1171.50927734375	nan	nan	nan	17.11331176757813	947.2548828125002	-723.3007812500001	-89.87696838378908	861.8465576171877	-528.1829833984376	-114.9345397949219	820.4612426757815	-543.0244140625001	-139.6562194824219	831.2203369140627	-489.0571594238282	-198.0162658691407	792.8856201171877	-467.685028076172	-251.7869720458985	865.1591796875002	-463.056610107422	-434.9160766601564	748.6546020507814	-655.6978149414064	-408.7628479003907	674.2593994140626	-641.5908813476564	nan	nan	nan	nan	nan	nan	nan	nan	nan	-471.0545654296876	805.1774902343752	-908.2177734375002	-494.7841796875001	795.7872314453127	-938.411071777344	-506.161346435547	794.126403808594	-884.6726074218752	-387.9797363281251	593.7530517578126	-1154.96337890625	-306.8499145507813	586.0959472656251	-1179.48046875	-280.2885742187501	623.1998291015626	-1162.151123046875	-278.4444885253907	536.1058959960939	-1196.903442382813	-141.6255798339844	477.7774047851564	-1223.571655273438	-103.4375	433.7395019531251	-1103.264892578125	-185.332748413086	264.2585144042969	-1173.437866210938	-254.6126098632813	256.4797973632813	-1233.489135742188	-224.2070922851563	234.0815124511719	-1208.00048828125	-266.5463867187501	166.9341278076172	-1176.35693359375	-384.438690185547	104.2869873046875	-1207.925537109375	-440.8494262695314	48.28078842163087	-1154.283325195313	-226.7147521972657	55.69913482666017	-1190.52392578125	-235.6939392089844	59.93204879760744	-1232.439331054688	-337.0310974121094	93.67926025390626	-1132.918334960938	-311.8270568847657	539.2894287109376	-616.0551147460939	-243.0462036132813	552.7214355468751	-601.4074707031251	-225.8848571777344	579.9470825195314	-613.5826416015626	-189.9821472167969	489.719940185547	-591.1811523437501	-155.5753784179688	450.9869689941407	-581.3328247070314	-106.2079315185547	427.5647888183595	-698.5433959960939	-163.8884887695313	317.6481323242188	-592.0248413085939	-267.5876159667969	285.9133605957032	-580.5469970703126	-229.4020080566407	259.4223327636719	-592.2004394531251	-237.4105224609376	216.4071655273438	-631.3142700195314	-394.451629638672	98.69165039062503	-618.3640136718751	-346.7251586914063	85.70681762695314	-696.3264770507814	-451.953826904297	48.66424942016603	-681.9080810546876	-239.2747650146485	58.85443496704103	-599.1838989257814	-255.0644836425782	61.23128890991212	-564.6744384765626	-285.1964111328126	42.95335388183594	-522.8017578125001	
685	3.42	69.63081359863283	1223.861450195313	-903.066101074219	-70.59577941894533	1113.092041015625	-968.8613891601565	-77.40464782714845	1115.044067382813	-823.9611816406252	-130.6534423828125	1062.002563476563	-895.530944824219	-370.1882019042969	864.7065429687502	-903.3037719726565	-19.53138160705567	907.1406860351565	-889.9835205078127	-5.010936737060548	971.2846679687502	-1061.554077148438	-81.76834869384767	902.5993652343752	-1255.385620117188	-91.31561279296876	855.0322265625002	-1257.570190429688	-113.8580856323242	875.0921020507815	-1309.554321289063	-158.760009765625	829.452575683594	-1346.990844726563	-221.2382812500001	890.3706665039065	-1342.852294921875	-386.8677978515626	763.3632202148439	-1134.382446289063	-374.4359436035157	692.1765136718751	-1171.425537109375	nan	nan	nan	17.19936561584473	948.3685302734377	-723.4276123046876	-89.63381958007814	862.893737792969	-528.2777099609376	-114.5517654418946	821.482116699219	-543.2064819335939	-139.36279296875	832.0947875976565	-489.1132812500001	-197.5870513916016	793.7705688476565	-467.6751098632814	-251.6082000732422	865.997009277344	-463.2124023437501	-435.3897705078126	749.6302490234376	-655.2494506835939	-408.2747192382814	674.8533325195314	-641.4208374023439	nan	nan	nan	nan	nan	nan	nan	nan	nan	-470.5164184570314	806.2460937500002	-908.103698730469	-494.2235107421876	796.8061523437502	-938.392761230469	-505.742645263672	795.0727539062502	-884.471862792969	-387.346649169922	594.3448486328126	-1155.326049804688	-306.4930419921876	586.4509887695314	-1179.22412109375	-279.5115966796876	623.2844238281251	-1161.715209960938	-278.0292053222657	536.3067626953126	-1196.665771484375	-141.8582000732422	477.8152160644532	-1223.027954101563	-103.4651565551758	433.7356872558595	-1102.741333007813	-185.14111328125	264.1087036132813	-1172.897338867188	-254.5304260253907	256.4828491210938	-1233.23193359375	-223.9573974609376	233.9736328125001	-1207.770385742188	-266.5848083496094	166.882080078125	-1176.24365234375	-384.347381591797	104.2667083740235	-1207.858276367188	-440.8562316894532	48.29605102539064	-1154.25634765625	-226.6958160400391	55.69971466064455	-1190.5087890625	-235.6208648681641	59.914363861084	-1232.365600585938	-337.0281066894532	93.70002746582033	-1132.79248046875	-311.4841613769532	539.5397949218751	-616.1735839843751	-242.6214294433594	552.9337158203126	-601.5215454101564	-225.3894042968751	580.1712646484376	-613.7391967773439	-190.2286376953125	488.9160766601564	-591.6771850585939	-155.3166961669922	451.1010742187501	-581.6238403320314	-106.9304809570313	427.8159484863282	-699.1193237304689	-163.5761871337891	317.4670104980469	-592.3510131835939	-267.2692871093751	285.7532348632813	-580.8962402343751	-229.0876007080079	259.2549133300782	-592.3666992187501	-237.2283477783204	216.3376617431641	-631.5240478515626	-394.3594970703126	98.71891021728518	-618.4217529296876	-346.6660766601563	85.67563629150392	-696.4336547851564	-452.0109252929689	48.74488067626955	-681.9038696289064	-239.2196502685547	58.80267715454103	-599.1597900390626	-255.0220336914063	61.24355316162111	-564.6970825195314	-285.1398315429688	42.9605941772461	-522.8728027343751	
686	3.425	69.55469512939455	1225.04931640625	-902.9664306640627	-70.84506988525392	1114.127197265625	-968.6549072265627	-77.55400848388673	1116.538208007813	-824.111511230469	-130.2877960205078	1062.90966796875	-895.7355957031252	-370.1737365722657	865.5584716796877	-903.1712036132815	-19.35089874267578	908.389587402344	-890.0958251953127	-4.885843753814698	972.5737304687502	-1061.625	-82.04067230224611	903.6516113281252	-1255.563598632813	-91.26313781738283	855.953796386719	-1257.513793945313	-114.2170104980469	876.291931152344	-1309.720581054688	-158.687973022461	830.1866455078127	-1346.917602539063	-221.3075256347657	891.0483398437502	-1342.932006835938	-386.5693969726564	764.1223144531251	-1134.185791015625	-374.4268493652344	692.9217529296876	-1171.341186523438	nan	nan	nan	17.29858589172364	949.7568969726565	-723.6572875976564	-89.23653411865236	864.0743408203127	-528.4192504882814	-114.2381057739258	822.6071777343752	-543.2590332031251	-138.9539337158203	833.2092285156252	-489.2857666015626	-197.0916137695313	794.922546386719	-467.8675842285157	-251.3409423828126	866.9358520507815	-463.3470458984376	-433.9178466796876	749.8703002929689	-655.5831298828126	-407.7550659179689	675.5676269531251	-641.3156738281251	nan	nan	nan	nan	nan	nan	nan	nan	nan	-470.2295532226564	807.144470214844	-907.9121093750002	-493.7996826171876	797.6680908203127	-938.0504150390627	-505.2736206054689	796.3218994140627	-884.3234863281252	-386.7356872558595	594.9968261718751	-1155.02294921875	-306.0791625976563	586.8493652343751	-1179.098388671875	-279.3681030273438	623.8954467773439	-1161.530029296875	-277.7211608886719	536.6096801757814	-1196.219482421875	-141.7766571044922	477.8923339843751	-1222.50048828125	-103.4289169311524	433.7012939453126	-1102.123901367188	-185.0664520263672	264.1029968261719	-1172.557739257813	-254.3965606689454	256.4692382812501	-1232.90234375	-223.7948150634766	233.9513702392579	-1207.580078125	-266.5417175292969	166.92138671875	-1176.044555664063	-384.2365722656251	104.2717971801758	-1207.822387695313	-440.860565185547	48.3130569458008	-1154.2646484375	-226.6748046875001	55.67779541015626	-1190.450439453125	-235.5405273437501	59.88668441772462	-1232.259765625	-337.0252990722657	93.63899230957033	-1132.66748046875	-311.1612854003907	539.9071044921876	-616.2867431640626	-242.1878814697266	553.1256713867189	-601.7001342773439	-224.9865417480469	580.2944946289064	-613.9030151367189	-189.9453430175782	488.8996887207032	-592.0258789062501	-155.0816345214844	450.9598999023439	-582.0009155273439	-105.9596328735352	427.4115600585939	-699.4199829101564	-163.2192077636719	317.3803405761719	-592.6472167968751	-266.8870239257813	285.5943908691407	-581.3101196289064	-228.8361968994141	259.1823730468751	-592.5388183593751	-237.0464324951172	216.2803802490235	-631.7819213867189	-394.2843627929689	98.76246643066409	-618.4323120117189	-346.6234436035157	85.6655731201172	-696.5404052734376	-451.9483337402345	48.79559326171876	-681.8815917968751	-239.2060241699219	58.80653762817384	-599.2349243164064	-254.9667968750001	61.20615386962892	-564.7426147460939	-285.1273193359376	42.95941925048829	-522.8240356445314	
